<svg viewBox="0 0 24 24" xmlns="http://www.w3.org/2000/svg">
  <path d="M1.72285 13.7106C1.25994 13.7106 0.857082 13.5387 0.514261 13.195C0.17142 12.8513 0 12.4485 0 11.9865C0 11.5246 0.171848 11.1225 0.515544 10.7804C0.85924 10.4383 1.26207 10.2672 1.72404 10.2672C2.18599 10.2672 2.58803 10.4387 2.93015 10.7817C3.27229 11.1247 3.44336 11.5267 3.44336 11.9877C3.44336 12.4506 3.27185 12.8535 2.92883 13.1963C2.58582 13.5391 2.18382 13.7106 1.72285 13.7106ZM3.09843 19.2652L6.91203 15.4516C7.11578 15.2478 7.37272 15.1508 7.68285 15.1606C7.99299 15.1703 8.26207 15.277 8.4901 15.4807C8.69383 15.7088 8.79569 15.9827 8.79569 16.3026C8.79569 16.6224 8.69383 16.8842 8.4901 17.088L4.6765 20.9016C4.44962 21.1294 4.18198 21.2384 3.8736 21.2287C3.56521 21.219 3.30682 21.1006 3.09843 20.8735C2.87061 20.6659 2.7567 20.4029 2.7567 20.0845C2.7567 19.7661 2.87061 19.493 3.09843 19.2652ZM6.91203 8.42477L3.09843 4.64033C2.87061 4.43661 2.76157 4.17968 2.77129 3.86954C2.78101 3.5594 2.89978 3.29032 3.12759 3.06229C3.33505 2.85855 3.59783 2.75668 3.91594 2.75668C4.23405 2.75668 4.50701 2.85855 4.73483 3.06229L8.51927 6.8467C8.72299 7.0736 8.82485 7.34125 8.82485 7.64963C8.82485 7.95802 8.72299 8.2164 8.51927 8.42477C8.29124 8.64794 8.01729 8.75953 7.69744 8.75953C7.37758 8.75953 7.11578 8.64794 6.91203 8.42477ZM12.0123 24C11.5494 24 11.1465 23.8282 10.8037 23.4845C10.4609 23.1408 10.2894 22.7379 10.2894 22.276C10.2894 21.814 10.4613 21.412 10.805 21.0699C11.1487 20.7277 11.5515 20.5566 12.0135 20.5566C12.4754 20.5566 12.8775 20.7282 13.2196 21.0712C13.5617 21.4142 13.7328 21.8162 13.7328 22.2772C13.7328 22.7401 13.5613 23.1429 13.2183 23.4857C12.8753 23.8286 12.4733 24 12.0123 24ZM12.0123 3.43636C11.5494 3.43636 11.1465 3.26568 10.8037 2.92431C10.4609 2.58297 10.2894 2.18015 10.2894 1.71585C10.2894 1.25154 10.4613 0.849488 10.805 0.509681C11.1487 0.169893 11.5515 0 12.0135 0C12.4754 0 12.8775 0.170671 13.2196 0.512014C13.5617 0.853358 13.7328 1.25618 13.7328 1.72048C13.7328 2.18479 13.5613 2.58684 13.2183 2.92665C12.8753 3.26645 12.4733 3.43636 12.0123 3.43636ZM15.5461 6.81754L19.3305 3.03313C19.5342 2.82938 19.7907 2.73237 20.1 2.74209C20.4092 2.75181 20.6787 2.85855 20.9085 3.06229C21.1123 3.29032 21.2142 3.56426 21.2142 3.88412C21.2142 4.20398 21.1123 4.46577 20.9085 4.6695L17.1171 8.47613C16.8901 8.70395 16.6232 8.81299 16.3164 8.80327C16.0095 8.79355 15.7451 8.66714 15.5233 8.42405C15.2952 8.21983 15.1862 7.95977 15.1962 7.64386C15.2063 7.32797 15.3229 7.05253 15.5461 6.81754ZM19.3305 20.8432L15.5169 17.0588C15.2937 16.8551 15.187 16.5981 15.1967 16.288C15.2064 15.9778 15.3229 15.7088 15.5461 15.4807C15.7535 15.277 16.0163 15.1751 16.3344 15.1751C16.6525 15.1751 16.9255 15.277 17.1533 15.4807L20.9377 19.2652C21.1415 19.4921 21.2433 19.7597 21.2433 20.0681C21.2433 20.3765 21.1403 20.6349 20.9342 20.8432C20.7087 21.0711 20.436 21.185 20.116 21.185C19.7961 21.185 19.5342 21.0711 19.3305 20.8432ZM22.2795 13.7106C21.8152 13.7106 21.4132 13.5387 21.0734 13.195C20.7335 12.8513 20.5636 12.4485 20.5636 11.9865C20.5636 11.5246 20.7343 11.1225 21.0757 10.7804C21.417 10.4383 21.8199 10.2672 22.2842 10.2672C22.7485 10.2672 23.1505 10.4387 23.4903 10.7817C23.8301 11.1247 24 11.5267 24 11.9877C24 12.4506 23.8293 12.8535 23.488 13.1963C23.1466 13.5391 22.7438 13.7106 22.2795 13.7106Z" fill="currentColor" />
</svg>